<svg viewBox="0 0 180 180" xmlns="http://www.w3.org/2000/svg" fill="none"><g transform="translate(0, 66)"><path fill-rule="evenodd" clip-rule="evenodd" d="M14.9809 20.9141C14 22.8393 14 25.3595 14 30.4V45.6C14 50.6405 14 53.1607 14.9809 55.0859C15.8438 56.7794 17.2206 58.1562 18.9141 59.0191C20.8393 60 23.3595 60 28.4 60H35.6C40.6405 60 43.1607 60 45.0859 59.0191C46.7794 58.1562 48.1562 56.7794 49.0191 55.0859C50 53.1607 50 50.6405 50 45.6V30.4C50 25.3595 50 22.8393 49.0191 20.9141C48.1562 19.2206 46.7794 17.8438 45.0859 16.9809C43.1607 16 40.6405 16 35.6 16H28.4C23.3595 16 20.8393 16 18.9141 16.9809C17.2206 17.8438 15.8438 19.2206 14.9809 20.9141ZM130.981 20.9141C130 22.8393 130 25.3595 130 30.4V45.6C130 50.6405 130 53.1607 130.981 55.0859C131.844 56.7794 133.221 58.1562 134.914 59.0191C136.839 60 139.36 60 144.4 60H151.6C156.64 60 159.161 60 161.086 59.0191C162.779 58.1562 164.156 56.7794 165.019 55.0859C166 53.1607 166 50.6405 166 45.6V30.4C166 25.3595 166 22.8393 165.019 20.9141C164.156 19.2206 162.779 17.8438 161.086 16.9809C159.161 16 156.64 16 151.6 16H144.4C139.36 16 136.839 16 134.914 16.9809C133.221 17.8438 131.844 19.2206 130.981 20.9141Z" fill="#0076DE"/><mask id="sidesSquareMask0" mask-type="alpha" maskUnits="userSpaceOnUse" x="14" y="16" width="152" height="44"><path fill-rule="evenodd" clip-rule="evenodd" d="M14.9809 20.9141C14 22.8393 14 25.3595 14 30.4V45.6C14 50.6405 14 53.1607 14.9809 55.0859C15.8438 56.7794 17.2206 58.1562 18.9141 59.0191C20.8393 60 23.3595 60 28.4 60H35.6C40.6405 60 43.1607 60 45.0859 59.0191C46.7794 58.1562 48.1562 56.7794 49.0191 55.0859C50 53.1607 50 50.6405 50 45.6V30.4C50 25.3595 50 22.8393 49.0191 20.9141C48.1562 19.2206 46.7794 17.8438 45.0859 16.9809C43.1607 16 40.6405 16 35.6 16H28.4C23.3595 16 20.8393 16 18.9141 16.9809C17.2206 17.8438 15.8438 19.2206 14.9809 20.9141ZM130.981 20.9141C130 22.8393 130 25.3595 130 30.4V45.6C130 50.6405 130 53.1607 130.981 55.0859C131.844 56.7794 133.221 58.1562 134.914 59.0191C136.839 60 139.36 60 144.4 60H151.6C156.64 60 159.161 60 161.086 59.0191C162.779 58.1562 164.156 56.7794 165.019 55.0859C166 53.1607 166 50.6405 166 45.6V30.4C166 25.3595 166 22.8393 165.019 20.9141C164.156 19.2206 162.779 17.8438 161.086 16.9809C159.161 16 156.64 16 151.6 16H144.4C139.36 16 136.839 16 134.914 16.9809C133.221 17.8438 131.844 19.2206 130.981 20.9141Z" fill="white"/></mask><g mask="url(#sidesSquareMask0)"><rect width="180" height="76" fill="#AB47BC"/><rect y="38" width="180" height="38" fill="black" fill-opacity="0.1"/></g></g><g transform="translate(41, 0)"><path fill-rule="evenodd" clip-rule="evenodd" d="M43.7993 28.3969C35.9888 20.5865 35.9888 7.92316 43.7993 0.112671L57.2343 13.5477L63.6874 7.09463C62.7814 5.56072 62.9874 3.55192 64.3054 2.23399C65.8675 0.671894 68.4001 0.671894 69.9622 2.23399C71.5243 3.79609 71.5243 6.32875 69.9622 7.89085C68.6443 9.20878 66.6355 9.41478 65.1016 8.50884L58.6485 14.9619L72.0835 28.3969C66.6332 33.8472 58.8199 35.4942 51.9414 33.3379V52.1127H47.9414V31.581C46.4606 30.7252 45.0661 29.6638 43.7993 28.3969Z" fill="#E1E6E8"/><mask id="topRadarMask0" mask-type="alpha" maskUnits="userSpaceOnUse" x="37" y="0" width="36" height="53"><path fill-rule="evenodd" clip-rule="evenodd" d="M43.7993 28.3969C35.9888 20.5865 35.9888 7.92316 43.7993 0.112671L57.2343 13.5477L63.6874 7.09463C62.7814 5.56072 62.9874 3.55192 64.3054 2.23399C65.8675 0.671894 68.4001 0.671894 69.9622 2.23399C71.5243 3.79609 71.5243 6.32875 69.9622 7.89085C68.6443 9.20878 66.6355 9.41478 65.1016 8.50884L58.6485 14.9619L72.0835 28.3969C66.6332 33.8472 58.8199 35.4942 51.9414 33.3379V52.1127H47.9414V31.581C46.4606 30.7252 45.0661 29.6638 43.7993 28.3969Z" fill="white"/></mask><g mask="url(#topRadarMask0)"><rect width="100" height="52" fill="#AB47BC"/><path fill-rule="evenodd" clip-rule="evenodd" d="M43.7988 0.112671C35.9883 7.92316 35.9883 20.5865 43.7988 28.3969C51.6093 36.2074 64.2726 36.2074 72.0831 28.3969" fill="white" fill-opacity="0.2"/><path fill-rule="evenodd" clip-rule="evenodd" d="M64.3054 7.89092C65.8675 9.45302 68.4001 9.45302 69.9622 7.89092C71.5243 6.32882 71.5243 3.79616 69.9622 2.23407C68.4001 0.67197 65.8675 0.67197 64.3054 2.23407C62.7433 3.79616 62.7433 6.32882 64.3054 7.89092Z" fill="white" fill-opacity="0.8"/></g></g><g transform="translate(25, 44)"><path fill-rule="evenodd" clip-rule="evenodd" d="M0 31C0 31.0205 0.0141049 30.8164 0 30C0.183375 29.5235 0.402009 28.5029 1 27C1.82671 23.944 3.7804 20.4435 7 17C16.6944 6.60017 35.1724 0 65 0C94.8276 0 113.306 6.60036 123 17C126.22 20.4435 128.173 23.944 129 27C129.598 28.5029 129.817 29.5236 130 30C129.986 30.8164 130 31.0205 130 31V70C130 69.8964 129.972 70.5012 130 71C129.739 73.1171 129.471 75.0149 129 77C127.814 82.9912 125.606 88.911 122 94C112.283 110.337 94.2553 120 65 120C35.7448 120 17.7164 110.338 8 94C4.39414 88.9108 2.1865 82.9912 1 77C0.529043 75.0149 0.261028 73.1171 0 71C0.0282767 70.5466 6.49997e-05 69.6771 0 70V31Z" fill="#E1E6E8"/><mask id="faceRound02Mask0" mask-type="alpha" maskUnits="userSpaceOnUse" x="0" y="0" width="130" height="120"><path fill-rule="evenodd" clip-rule="evenodd" d="M0 31C0 31.0205 0.0141049 30.8164 0 30C0.183375 29.5235 0.402009 28.5029 1 27C1.82671 23.944 3.7804 20.4435 7 17C16.6944 6.60017 35.1724 0 65 0C94.8276 0 113.306 6.60036 123 17C126.22 20.4435 128.173 23.944 129 27C129.598 28.5029 129.817 29.5236 130 30C129.986 30.8164 130 31.0205 130 31V70C130 69.8964 129.972 70.5012 130 71C129.739 73.1171 129.471 75.0149 129 77C127.814 82.9912 125.606 88.911 122 94C112.283 110.337 94.2553 120 65 120C35.7448 120 17.7164 110.338 8 94C4.39414 88.9108 2.1865 82.9912 1 77C0.529043 75.0149 0.261028 73.1171 0 71C0.0282767 70.5466 6.49997e-05 69.6771 0 70V31Z" fill="white"/></mask><g mask="url(#faceRound02Mask0)"><rect x="-4" y="-2" width="138" height="124" fill="#8E24AA"/>
            undefined
        </g></g><g transform="translate(52, 124)"><rect x="12" y="12" width="4" height="8" rx="2" fill="black" fill-opacity="0.6"/><rect x="36" y="12" width="4" height="8" rx="2" fill="black" fill-opacity="0.6"/><rect x="24" y="12" width="4" height="8" rx="2" fill="black" fill-opacity="0.6"/><rect x="48" y="12" width="4" height="8" rx="2" fill="black" fill-opacity="0.6"/><rect x="60" y="12" width="4" height="8" rx="2" fill="black" fill-opacity="0.6"/></g><g transform="translate(38, 76)"><path fill-rule="evenodd" clip-rule="evenodd" d="M28 42C37.9411 42 46 33.9411 46 24C46 14.0589 37.9411 6 28 6C18.0589 6 10 14.0589 10 24C10 33.9411 18.0589 42 28 42Z" fill="black" fill-opacity="0.2"/><path fill-rule="evenodd" clip-rule="evenodd" d="M74 42C83.9411 42 92 33.9411 92 24C92 14.0589 83.9411 6 74 6C64.0589 6 56 14.0589 56 24C56 33.9411 64.0589 42 74 42Z" fill="black" fill-opacity="0.2"/><path fill-rule="evenodd" clip-rule="evenodd" d="M28 39C36.2843 39 43 32.2843 43 24C43 15.7157 36.2843 9 28 9C19.7157 9 13 15.7157 13 24C13 32.2843 19.7157 39 28 39Z" fill="#F1EEDA"/><path fill-rule="evenodd" clip-rule="evenodd" d="M74 39C82.2843 39 89 32.2843 89 24C89 15.7157 82.2843 9 74 9C65.7157 9 59 15.7157 59 24C59 32.2843 65.7157 39 74 39Z" fill="#F1EEDA"/><rect x="26" y="15" width="10" height="10" rx="2" fill="black" fill-opacity="0.8"/><rect x="74" y="15" width="10" height="10" rx="2" fill="black" fill-opacity="0.8"/></g></svg>