<svg viewBox="0 0 180 180" xmlns="http://www.w3.org/2000/svg" fill="none"><g transform="translate(0, 66)"><path fill-rule="evenodd" clip-rule="evenodd" d="M134.436 10.184C134 11.0397 134 12.1598 134 14.4V61.6C134 63.8402 134 64.9603 134.436 65.816C134.819 66.5686 135.431 67.1805 136.184 67.564C137.04 68 138.16 68 140.4 68H163.6C165.84 68 166.96 68 167.816 67.564C168.569 67.1805 169.181 66.5686 169.564 65.816C170 64.9603 170 63.8402 170 61.6V52.9944C171.35 52.9761 172.161 52.8979 172.816 52.564C173.569 52.1805 174.181 51.5686 174.564 50.816C175 49.9603 175 48.8402 175 46.6V29.4C175 27.1598 175 26.0397 174.564 25.184C174.181 24.4314 173.569 23.8195 172.816 23.436C172.161 23.1021 171.35 23.0239 170 23.0056V14.4C170 12.1598 170 11.0397 169.564 10.184C169.181 9.43139 168.569 8.81947 167.816 8.43597C166.96 8 165.84 8 163.6 8H140.4C138.16 8 137.04 8 136.184 8.43597C135.431 8.81947 134.819 9.43139 134.436 10.184ZM20.436 17.184C20 18.0397 20 19.1598 20 21.4V31H16.4C14.1598 31 13.0397 31 12.184 31.436C11.4314 31.8195 10.8195 32.4314 10.436 33.184C10 34.0397 10 35.1598 10 37.4V54.6C10 56.8402 10 57.9603 10.436 58.816C10.8195 59.5686 11.4314 60.1805 12.184 60.564C13.0397 61 14.1598 61 16.4 61H39.6C41.8402 61 42.9603 61 43.816 60.564C44.5686 60.1805 45.1805 59.5686 45.564 58.816C46 57.9603 46 56.8402 46 54.6V38.6V37.4V21.4C46 19.1598 46 18.0397 45.564 17.184C45.1805 16.4314 44.5686 15.8195 43.816 15.436C42.9603 15 41.8402 15 39.6 15H26.4C24.1598 15 23.0397 15 22.184 15.436C21.4314 15.8195 20.8195 16.4314 20.436 17.184Z" fill="#0076DE"/><mask id="sidesSquareAssymetricMask0" mask-type="alpha" maskUnits="userSpaceOnUse" x="10" y="8" width="165" height="60"><path fill-rule="evenodd" clip-rule="evenodd" d="M134.436 10.184C134 11.0397 134 12.1598 134 14.4V61.6C134 63.8402 134 64.9603 134.436 65.816C134.819 66.5686 135.431 67.1805 136.184 67.564C137.04 68 138.16 68 140.4 68H163.6C165.84 68 166.96 68 167.816 67.564C168.569 67.1805 169.181 66.5686 169.564 65.816C170 64.9603 170 63.8402 170 61.6V52.9944C171.35 52.9761 172.161 52.8979 172.816 52.564C173.569 52.1805 174.181 51.5686 174.564 50.816C175 49.9603 175 48.8402 175 46.6V29.4C175 27.1598 175 26.0397 174.564 25.184C174.181 24.4314 173.569 23.8195 172.816 23.436C172.161 23.1021 171.35 23.0239 170 23.0056V14.4C170 12.1598 170 11.0397 169.564 10.184C169.181 9.43139 168.569 8.81947 167.816 8.43597C166.96 8 165.84 8 163.6 8H140.4C138.16 8 137.04 8 136.184 8.43597C135.431 8.81947 134.819 9.43139 134.436 10.184ZM20.436 17.184C20 18.0397 20 19.1598 20 21.4V31H16.4C14.1598 31 13.0397 31 12.184 31.436C11.4314 31.8195 10.8195 32.4314 10.436 33.184C10 34.0397 10 35.1598 10 37.4V54.6C10 56.8402 10 57.9603 10.436 58.816C10.8195 59.5686 11.4314 60.1805 12.184 60.564C13.0397 61 14.1598 61 16.4 61H39.6C41.8402 61 42.9603 61 43.816 60.564C44.5686 60.1805 45.1805 59.5686 45.564 58.816C46 57.9603 46 56.8402 46 54.6V38.6V37.4V21.4C46 19.1598 46 18.0397 45.564 17.184C45.1805 16.4314 44.5686 15.8195 43.816 15.436C42.9603 15 41.8402 15 39.6 15H26.4C24.1598 15 23.0397 15 22.184 15.436C21.4314 15.8195 20.8195 16.4314 20.436 17.184Z" fill="white"/></mask><g mask="url(#sidesSquareAssymetricMask0)"><rect width="180" height="76" fill="#FF7043"/><rect y="47" width="180" height="29" fill="black" fill-opacity="0.1"/><path fill-rule="evenodd" clip-rule="evenodd" d="M161 25C163.761 25 166 22.7614 166 20C166 17.2386 163.761 15 161 15C158.239 15 156 17.2386 156 20C156 22.7614 158.239 25 161 25Z" fill="white" fill-opacity="0.6"/><path fill-rule="evenodd" clip-rule="evenodd" d="M161 41C163.761 41 166 38.7614 166 36C166 33.2386 163.761 31 161 31C158.239 31 156 33.2386 156 36C156 38.7614 158.239 41 161 41Z" fill="white" fill-opacity="0.6"/></g></g><g transform="translate(41, 0)"><path fill-rule="evenodd" clip-rule="evenodd" d="M50 13C38.9543 13 30 21.9543 30 33V36H21C20.4477 36 20 36.4477 20 37V51C20 51.5523 20.4477 52 21 52H79C79.5523 52 80 51.5523 80 51V37C80 36.4477 79.5523 36 79 36H70V33C70 21.9543 61.0457 13 50 13Z" fill="#59C4FF"/><mask id="topBulb01Mask0" mask-type="alpha" maskUnits="userSpaceOnUse" x="20" y="13" width="60" height="39"><path fill-rule="evenodd" clip-rule="evenodd" d="M50 13C38.9543 13 30 21.9543 30 33V36H21C20.4477 36 20 36.4477 20 37V51C20 51.5523 20.4477 52 21 52H79C79.5523 52 80 51.5523 80 51V37C80 36.4477 79.5523 36 79 36H70V33C70 21.9543 61.0457 13 50 13Z" fill="white"/></mask><g mask="url(#topBulb01Mask0)"><rect width="100" height="52" fill="#FF7043"/><path fill-rule="evenodd" clip-rule="evenodd" d="M50 36C52.2091 36 54 35.028 54 31.7143C54 28.4006 52.2091 24 50 24C47.7909 24 46 28.4006 46 31.7143C46 35.028 47.7909 36 50 36Z" fill="white" fill-opacity="0.6"/><rect x="20" y="13" width="60" height="23" fill="white" fill-opacity="0.4"/><path d="M50 14.5C49.4477 14.5 49 14.9477 49 15.5C49 16.0523 49.4477 16.5 50 16.5V14.5ZM61.6941 21.6875C62.0649 22.0968 62.6973 22.1281 63.1066 21.7573C63.5159 21.3865 63.5471 20.7541 63.1763 20.3448L61.6941 21.6875ZM65.7595 24.0473C65.5035 23.5579 64.8993 23.3686 64.4099 23.6246C63.9205 23.8806 63.7313 24.4848 63.9873 24.9742L65.7595 24.0473ZM65.4248 28.9559C65.5404 29.4959 66.0719 29.84 66.6119 29.7244C67.152 29.6088 67.4961 29.0773 67.3805 28.5373L65.4248 28.9559ZM50 16.5C54.6375 16.5 58.8065 18.4999 61.6941 21.6875L63.1763 20.3448C59.9256 16.7563 55.2256 14.5 50 14.5V16.5ZM63.9873 24.9742C64.6357 26.2139 65.1239 27.5501 65.4248 28.9559L67.3805 28.5373C67.0411 26.9518 66.4904 25.4448 65.7595 24.0473L63.9873 24.9742Z" fill="white"/></g></g><g transform="translate(25, 44)"><path d="M0 12C0 5.37259 5.37258 0 12 0H118C124.627 0 130 5.37258 130 12V82C130 102.987 112.987 120 92 120H38C17.0132 120 0 102.987 0 82V12Z" fill="#0076DE"/><mask id="faceSquare01Mask0" mask-type="alpha" maskUnits="userSpaceOnUse" x="0" y="0" width="130" height="120"><path d="M0 12C0 5.37259 5.37258 0 12 0H118C124.627 0 130 5.37258 130 12V82C130 102.987 112.987 120 92 120H38C17.0132 120 0 102.987 0 82V12Z" fill="white"/></mask><g mask="url(#faceSquare01Mask0)"><rect x="-2" y="-2" width="134" height="124" fill="#F4511E"/>
            undefined
        </g></g><g transform="translate(52, 124)"><rect x="12" y="12" width="4" height="8" rx="2" fill="black" fill-opacity="0.6"/><rect x="36" y="12" width="4" height="8" rx="2" fill="black" fill-opacity="0.6"/><rect x="24" y="12" width="4" height="8" rx="2" fill="black" fill-opacity="0.6"/><rect x="48" y="12" width="4" height="8" rx="2" fill="black" fill-opacity="0.6"/><rect x="60" y="12" width="4" height="8" rx="2" fill="black" fill-opacity="0.6"/></g><g transform="translate(38, 76)"><path fill-rule="evenodd" clip-rule="evenodd" d="M21 45C29.2843 45 36 38.2843 36 30C36 21.7157 29.2843 15 21 15C12.7157 15 6 21.7157 6 30C6 38.2843 12.7157 45 21 45Z" fill="white" fill-opacity="0.1"/><path fill-rule="evenodd" clip-rule="evenodd" d="M83 45C91.2843 45 98 38.2843 98 30C98 21.7157 91.2843 15 83 15C74.7157 15 68 21.7157 68 30C68 38.2843 74.7157 45 83 45Z" fill="white" fill-opacity="0.1"/><path fill-rule="evenodd" clip-rule="evenodd" d="M21 42C27.6274 42 33 36.6274 33 30C33 23.3726 27.6274 18 21 18C14.3726 18 9 23.3726 9 30C9 36.6274 14.3726 42 21 42Z" fill="white" fill-opacity="0.1"/><path fill-rule="evenodd" clip-rule="evenodd" d="M83 42C89.6274 42 95 36.6274 95 30C95 23.3726 89.6274 18 83 18C76.3726 18 71 23.3726 71 30C71 36.6274 76.3726 42 83 42Z" fill="white" fill-opacity="0.1"/><path fill-rule="evenodd" clip-rule="evenodd" d="M21 36C24.3137 36 27 33.3137 27 30C27 26.6863 24.3137 24 21 24C17.6863 24 15 26.6863 15 30C15 33.3137 17.6863 36 21 36Z" fill="white" fill-opacity="0.8"/><path fill-rule="evenodd" clip-rule="evenodd" d="M83 36C86.3137 36 89 33.3137 89 30C89 26.6863 86.3137 24 83 24C79.6863 24 77 26.6863 77 30C77 33.3137 79.6863 36 83 36Z" fill="white" fill-opacity="0.8"/><path fill-rule="evenodd" clip-rule="evenodd" d="M21 33C22.6569 33 24 31.6569 24 30C24 28.3431 22.6569 27 21 27C19.3431 27 18 28.3431 18 30C18 31.6569 19.3431 33 21 33Z" fill="white" fill-opacity="0.8"/><path fill-rule="evenodd" clip-rule="evenodd" d="M83 33C84.6569 33 86 31.6569 86 30C86 28.3431 84.6569 27 83 27C81.3431 27 80 28.3431 80 30C80 31.6569 81.3431 33 83 33Z" fill="white" fill-opacity="0.8"/></g></svg>