<svg viewBox="0 0 180 180" xmlns="http://www.w3.org/2000/svg" fill="none"><g transform="translate(0, 66)"><path fill-rule="evenodd" clip-rule="evenodd" d="M134.436 10.184C134 11.0397 134 12.1598 134 14.4V61.6C134 63.8402 134 64.9603 134.436 65.816C134.819 66.5686 135.431 67.1805 136.184 67.564C137.04 68 138.16 68 140.4 68H163.6C165.84 68 166.96 68 167.816 67.564C168.569 67.1805 169.181 66.5686 169.564 65.816C170 64.9603 170 63.8402 170 61.6V52.9944C171.35 52.9761 172.161 52.8979 172.816 52.564C173.569 52.1805 174.181 51.5686 174.564 50.816C175 49.9603 175 48.8402 175 46.6V29.4C175 27.1598 175 26.0397 174.564 25.184C174.181 24.4314 173.569 23.8195 172.816 23.436C172.161 23.1021 171.35 23.0239 170 23.0056V14.4C170 12.1598 170 11.0397 169.564 10.184C169.181 9.43139 168.569 8.81947 167.816 8.43597C166.96 8 165.84 8 163.6 8H140.4C138.16 8 137.04 8 136.184 8.43597C135.431 8.81947 134.819 9.43139 134.436 10.184ZM20.436 17.184C20 18.0397 20 19.1598 20 21.4V31H16.4C14.1598 31 13.0397 31 12.184 31.436C11.4314 31.8195 10.8195 32.4314 10.436 33.184C10 34.0397 10 35.1598 10 37.4V54.6C10 56.8402 10 57.9603 10.436 58.816C10.8195 59.5686 11.4314 60.1805 12.184 60.564C13.0397 61 14.1598 61 16.4 61H39.6C41.8402 61 42.9603 61 43.816 60.564C44.5686 60.1805 45.1805 59.5686 45.564 58.816C46 57.9603 46 56.8402 46 54.6V38.6V37.4V21.4C46 19.1598 46 18.0397 45.564 17.184C45.1805 16.4314 44.5686 15.8195 43.816 15.436C42.9603 15 41.8402 15 39.6 15H26.4C24.1598 15 23.0397 15 22.184 15.436C21.4314 15.8195 20.8195 16.4314 20.436 17.184Z" fill="#0076DE"/><mask id="sidesSquareAssymetricMask0" mask-type="alpha" maskUnits="userSpaceOnUse" x="10" y="8" width="165" height="60"><path fill-rule="evenodd" clip-rule="evenodd" d="M134.436 10.184C134 11.0397 134 12.1598 134 14.4V61.6C134 63.8402 134 64.9603 134.436 65.816C134.819 66.5686 135.431 67.1805 136.184 67.564C137.04 68 138.16 68 140.4 68H163.6C165.84 68 166.96 68 167.816 67.564C168.569 67.1805 169.181 66.5686 169.564 65.816C170 64.9603 170 63.8402 170 61.6V52.9944C171.35 52.9761 172.161 52.8979 172.816 52.564C173.569 52.1805 174.181 51.5686 174.564 50.816C175 49.9603 175 48.8402 175 46.6V29.4C175 27.1598 175 26.0397 174.564 25.184C174.181 24.4314 173.569 23.8195 172.816 23.436C172.161 23.1021 171.35 23.0239 170 23.0056V14.4C170 12.1598 170 11.0397 169.564 10.184C169.181 9.43139 168.569 8.81947 167.816 8.43597C166.96 8 165.84 8 163.6 8H140.4C138.16 8 137.04 8 136.184 8.43597C135.431 8.81947 134.819 9.43139 134.436 10.184ZM20.436 17.184C20 18.0397 20 19.1598 20 21.4V31H16.4C14.1598 31 13.0397 31 12.184 31.436C11.4314 31.8195 10.8195 32.4314 10.436 33.184C10 34.0397 10 35.1598 10 37.4V54.6C10 56.8402 10 57.9603 10.436 58.816C10.8195 59.5686 11.4314 60.1805 12.184 60.564C13.0397 61 14.1598 61 16.4 61H39.6C41.8402 61 42.9603 61 43.816 60.564C44.5686 60.1805 45.1805 59.5686 45.564 58.816C46 57.9603 46 56.8402 46 54.6V38.6V37.4V21.4C46 19.1598 46 18.0397 45.564 17.184C45.1805 16.4314 44.5686 15.8195 43.816 15.436C42.9603 15 41.8402 15 39.6 15H26.4C24.1598 15 23.0397 15 22.184 15.436C21.4314 15.8195 20.8195 16.4314 20.436 17.184Z" fill="white"/></mask><g mask="url(#sidesSquareAssymetricMask0)"><rect width="180" height="76" fill="#FFCA28"/><rect y="47" width="180" height="29" fill="black" fill-opacity="0.1"/><path fill-rule="evenodd" clip-rule="evenodd" d="M161 25C163.761 25 166 22.7614 166 20C166 17.2386 163.761 15 161 15C158.239 15 156 17.2386 156 20C156 22.7614 158.239 25 161 25Z" fill="white" fill-opacity="0.6"/><path fill-rule="evenodd" clip-rule="evenodd" d="M161 41C163.761 41 166 38.7614 166 36C166 33.2386 163.761 31 161 31C158.239 31 156 33.2386 156 36C156 38.7614 158.239 41 161 41Z" fill="white" fill-opacity="0.6"/></g></g><g transform="translate(41, 0)"><path fill-rule="evenodd" clip-rule="evenodd" d="M43.7993 28.3969C35.9888 20.5865 35.9888 7.92316 43.7993 0.112671L57.2343 13.5477L63.6874 7.09463C62.7814 5.56072 62.9874 3.55192 64.3054 2.23399C65.8675 0.671894 68.4001 0.671894 69.9622 2.23399C71.5243 3.79609 71.5243 6.32875 69.9622 7.89085C68.6443 9.20878 66.6355 9.41478 65.1016 8.50884L58.6485 14.9619L72.0835 28.3969C66.6332 33.8472 58.8199 35.4942 51.9414 33.3379V52.1127H47.9414V31.581C46.4606 30.7252 45.0661 29.6638 43.7993 28.3969Z" fill="#E1E6E8"/><mask id="topRadarMask0" mask-type="alpha" maskUnits="userSpaceOnUse" x="37" y="0" width="36" height="53"><path fill-rule="evenodd" clip-rule="evenodd" d="M43.7993 28.3969C35.9888 20.5865 35.9888 7.92316 43.7993 0.112671L57.2343 13.5477L63.6874 7.09463C62.7814 5.56072 62.9874 3.55192 64.3054 2.23399C65.8675 0.671894 68.4001 0.671894 69.9622 2.23399C71.5243 3.79609 71.5243 6.32875 69.9622 7.89085C68.6443 9.20878 66.6355 9.41478 65.1016 8.50884L58.6485 14.9619L72.0835 28.3969C66.6332 33.8472 58.8199 35.4942 51.9414 33.3379V52.1127H47.9414V31.581C46.4606 30.7252 45.0661 29.6638 43.7993 28.3969Z" fill="white"/></mask><g mask="url(#topRadarMask0)"><rect width="100" height="52" fill="#FFCA28"/><path fill-rule="evenodd" clip-rule="evenodd" d="M43.7988 0.112671C35.9883 7.92316 35.9883 20.5865 43.7988 28.3969C51.6093 36.2074 64.2726 36.2074 72.0831 28.3969" fill="white" fill-opacity="0.2"/><path fill-rule="evenodd" clip-rule="evenodd" d="M64.3054 7.89092C65.8675 9.45302 68.4001 9.45302 69.9622 7.89092C71.5243 6.32882 71.5243 3.79616 69.9622 2.23407C68.4001 0.67197 65.8675 0.67197 64.3054 2.23407C62.7433 3.79616 62.7433 6.32882 64.3054 7.89092Z" fill="white" fill-opacity="0.8"/></g></g><g transform="translate(25, 44)"><path fill-rule="evenodd" clip-rule="evenodd" d="M0 18C0 8.05888 8.05888 0 18 0H112C121.941 0 130 8.05888 130 18V45.1483C130 49.6831 129.229 54.1848 127.72 58.4611L110.239 107.991C107.699 115.187 100.896 120 93.2647 120H36.7353C29.1036 120 22.3014 115.187 19.7614 107.991L2.28038 58.4611C0.771117 54.1848 0 49.6831 0 45.1483L0 18Z" fill="#0076DE"/><mask id="faceSquare03Mask0" mask-type="alpha" maskUnits="userSpaceOnUse" x="0" y="0" width="130" height="120"><path fill-rule="evenodd" clip-rule="evenodd" d="M0 18C0 8.05888 8.05888 0 18 0H112C121.941 0 130 8.05888 130 18V45.1483C130 49.6831 129.229 54.1848 127.72 58.4611L110.239 107.991C107.699 115.187 100.896 120 93.2647 120H36.7353C29.1036 120 22.3014 115.187 19.7614 107.991L2.28038 58.4611C0.771117 54.1848 0 49.6831 0 45.1483L0 18Z" fill="white"/></mask><g mask="url(#faceSquare03Mask0)"><rect x="-2" y="-2" width="134" height="124" fill="#FFB300"/>
            undefined
        </g></g><g transform="translate(52, 124)"><rect x="4" y="5" width="68" height="22" rx="5" fill="black" fill-opacity="0.2"/><rect x="8" y="9" width="60" height="14" rx="2" fill="white"/><rect x="18" y="9" width="4" height="14" fill="black" fill-opacity="0.1"/><rect x="42" y="9" width="4" height="14" fill="black" fill-opacity="0.1"/><rect x="30" y="9" width="4" height="14" fill="black" fill-opacity="0.1"/><rect x="54" y="9" width="4" height="14" fill="black" fill-opacity="0.1"/></g><g transform="translate(38, 76)"><path fill-rule="evenodd" clip-rule="evenodd" d="M0 10C0 5.58172 3.58172 2 8 2H96C100.418 2 104 5.58172 104 10V28C104 32.4183 100.418 36 96 36H82.9808C79.7112 36.1672 77.4997 37.137 76.0046 38.3473C75.5176 38.7414 75.0239 39.1634 74.5216 39.5927C72.0465 41.7082 69.3652 44 66.2779 44H52H38.6676C35.5324 44 32.732 41.8707 30.0462 39.8285L30.0461 39.8285C29.096 39.1061 28.1602 38.3945 27.229 37.792C25.7725 36.8497 23.7704 36.1407 21.0192 36H8C3.58172 36 0 32.4183 0 28V10Z" fill="black" fill-opacity="0.8"/><mask id="eyesShade01Mask0" mask-type="alpha" maskUnits="userSpaceOnUse" x="0" y="2" width="104" height="42"><path fill-rule="evenodd" clip-rule="evenodd" d="M0 10C0 5.58172 3.58172 2 8 2H96C100.418 2 104 5.58172 104 10V28C104 32.4183 100.418 36 96 36H82.9808C79.7112 36.1672 77.4997 37.137 76.0046 38.3473C75.5176 38.7414 75.0239 39.1634 74.5216 39.5927C72.0465 41.7082 69.3652 44 66.2779 44H52H38.6676C35.5324 44 32.732 41.8707 30.0462 39.8285L30.0461 39.8285C29.096 39.1061 28.1602 38.3945 27.229 37.792C25.7725 36.8497 23.7704 36.1407 21.0192 36H8C3.58172 36 0 32.4183 0 28V10Z" fill="white"/></mask><g mask="url(#eyesShade01Mask0)"><path fill-rule="evenodd" clip-rule="evenodd" d="M12 19C12 16.2386 14.2386 14 17 14H87C89.7614 14 92 16.2386 92 19V21C92 23.7614 89.7614 26 87 26H74.9808C71.7112 26.1672 69.4997 27.137 68.0046 28.3473C67.5176 28.7414 67.0239 29.1634 66.5216 29.5927C64.5182 31.3051 62.3796 33.133 60 33.7674V34H58.2779H52H46.6676C43.5324 34 40.732 31.8707 38.0462 29.8285L38.0461 29.8285C37.096 29.1061 36.1602 28.3945 35.229 27.792C33.7725 26.8497 31.7704 26.1407 29.0192 26H17C14.2386 26 12 23.7614 12 21V19Z" fill="#FF3D3D"/><path fill-rule="evenodd" clip-rule="evenodd" d="M12 44L32 -2H28L8 44H12ZM50 -2H39L19 44H30L50 -2Z" fill="white" fill-opacity="0.2"/></g></g></svg>