<svg viewBox="0 0 180 180" xmlns="http://www.w3.org/2000/svg" fill="none"><g transform="translate(0, 66)"><path fill-rule="evenodd" clip-rule="evenodd" d="M160 9H162V28H163.6C165.84 28 166.96 28 167.816 28.436C168.569 28.8195 169.181 29.4314 169.564 30.184C170 31.0397 170 32.1598 170 34.4V53.6C170 55.8402 170 56.9603 169.564 57.816C169.181 58.5686 168.569 59.1805 167.816 59.564C166.96 60 165.84 60 163.6 60H140.4C138.16 60 137.04 60 136.184 59.564C135.431 59.1805 134.819 58.5686 134.436 57.816C134 56.9603 134 55.8402 134 53.6V34.4C134 32.1598 134 31.0397 134.436 30.184C134.819 29.4314 135.431 28.8195 136.184 28.436C137.04 28 138.16 28 140.4 28H160V9ZM10 34.4C10 32.1598 10 31.0397 10.436 30.184C10.8195 29.4314 11.4314 28.8195 12.184 28.436C13.0397 28 14.1598 28 16.4 28H39.6C41.8402 28 42.9603 28 43.816 28.436C44.5686 28.8195 45.1805 29.4314 45.564 30.184C46 31.0397 46 32.1598 46 34.4V53.6C46 55.8402 46 56.9603 45.564 57.816C45.1805 58.5686 44.5686 59.1805 43.816 59.564C42.9603 60 41.8402 60 39.6 60H16.4C14.1598 60 13.0397 60 12.184 59.564C11.4314 59.1805 10.8195 58.5686 10.436 57.816C10 56.9603 10 55.8402 10 53.6V34.4Z" fill="#0076DE"/><mask id="sidesAntenna02Mask0" mask-type="alpha" maskUnits="userSpaceOnUse" x="10" y="9" width="160" height="51"><path fill-rule="evenodd" clip-rule="evenodd" d="M160 9H162V28H163.6C165.84 28 166.96 28 167.816 28.436C168.569 28.8195 169.181 29.4314 169.564 30.184C170 31.0397 170 32.1598 170 34.4V53.6C170 55.8402 170 56.9603 169.564 57.816C169.181 58.5686 168.569 59.1805 167.816 59.564C166.96 60 165.84 60 163.6 60H140.4C138.16 60 137.04 60 136.184 59.564C135.431 59.1805 134.819 58.5686 134.436 57.816C134 56.9603 134 55.8402 134 53.6V34.4C134 32.1598 134 31.0397 134.436 30.184C134.819 29.4314 135.431 28.8195 136.184 28.436C137.04 28 138.16 28 140.4 28H160V9ZM10 34.4C10 32.1598 10 31.0397 10.436 30.184C10.8195 29.4314 11.4314 28.8195 12.184 28.436C13.0397 28 14.1598 28 16.4 28H39.6C41.8402 28 42.9603 28 43.816 28.436C44.5686 28.8195 45.1805 29.4314 45.564 30.184C46 31.0397 46 32.1598 46 34.4V53.6C46 55.8402 46 56.9603 45.564 57.816C45.1805 58.5686 44.5686 59.1805 43.816 59.564C42.9603 60 41.8402 60 39.6 60H16.4C14.1598 60 13.0397 60 12.184 59.564C11.4314 59.1805 10.8195 58.5686 10.436 57.816C10 56.9603 10 55.8402 10 53.6V34.4Z" fill="white"/></mask><g mask="url(#sidesAntenna02Mask0)"><rect width="180" height="76" fill="#7E57C2"/><rect y="38" width="180" height="38" fill="black" fill-opacity="0.1"/></g><rect x="160" y="8" width="2" height="20" fill="white" fill-opacity="0.4"/><path fill-rule="evenodd" clip-rule="evenodd" d="M161 9C163.209 9 165 7.20914 165 5C165 2.79086 163.209 1 161 1C158.791 1 157 2.79086 157 5C157 7.20914 158.791 9 161 9Z" fill="#E1E6E8"/><path fill-rule="evenodd" clip-rule="evenodd" d="M162 6C163.105 6 164 5.10457 164 4C164 2.89543 163.105 2 162 2C160.895 2 160 2.89543 160 4C160 5.10457 160.895 6 162 6Z" fill="white"/></g><g transform="translate(41, 0)"><path fill-rule="evenodd" clip-rule="evenodd" d="M43.7993 28.3969C35.9888 20.5865 35.9888 7.92316 43.7993 0.112671L57.2343 13.5477L63.6874 7.09463C62.7814 5.56072 62.9874 3.55192 64.3054 2.23399C65.8675 0.671894 68.4001 0.671894 69.9622 2.23399C71.5243 3.79609 71.5243 6.32875 69.9622 7.89085C68.6443 9.20878 66.6355 9.41478 65.1016 8.50884L58.6485 14.9619L72.0835 28.3969C66.6332 33.8472 58.8199 35.4942 51.9414 33.3379V52.1127H47.9414V31.581C46.4606 30.7252 45.0661 29.6638 43.7993 28.3969Z" fill="#E1E6E8"/><mask id="topRadarMask0" mask-type="alpha" maskUnits="userSpaceOnUse" x="37" y="0" width="36" height="53"><path fill-rule="evenodd" clip-rule="evenodd" d="M43.7993 28.3969C35.9888 20.5865 35.9888 7.92316 43.7993 0.112671L57.2343 13.5477L63.6874 7.09463C62.7814 5.56072 62.9874 3.55192 64.3054 2.23399C65.8675 0.671894 68.4001 0.671894 69.9622 2.23399C71.5243 3.79609 71.5243 6.32875 69.9622 7.89085C68.6443 9.20878 66.6355 9.41478 65.1016 8.50884L58.6485 14.9619L72.0835 28.3969C66.6332 33.8472 58.8199 35.4942 51.9414 33.3379V52.1127H47.9414V31.581C46.4606 30.7252 45.0661 29.6638 43.7993 28.3969Z" fill="white"/></mask><g mask="url(#topRadarMask0)"><rect width="100" height="52" fill="#7E57C2"/><path fill-rule="evenodd" clip-rule="evenodd" d="M43.7988 0.112671C35.9883 7.92316 35.9883 20.5865 43.7988 28.3969C51.6093 36.2074 64.2726 36.2074 72.0831 28.3969" fill="white" fill-opacity="0.2"/><path fill-rule="evenodd" clip-rule="evenodd" d="M64.3054 7.89092C65.8675 9.45302 68.4001 9.45302 69.9622 7.89092C71.5243 6.32882 71.5243 3.79616 69.9622 2.23407C68.4001 0.67197 65.8675 0.67197 64.3054 2.23407C62.7433 3.79616 62.7433 6.32882 64.3054 7.89092Z" fill="white" fill-opacity="0.8"/></g></g><g transform="translate(25, 44)"><path d="M0 12C0 5.37259 5.37258 0 12 0H118C124.627 0 130 5.37258 130 12V82C130 102.987 112.987 120 92 120H38C17.0132 120 0 102.987 0 82V12Z" fill="#0076DE"/><mask id="faceSquare01Mask0" mask-type="alpha" maskUnits="userSpaceOnUse" x="0" y="0" width="130" height="120"><path d="M0 12C0 5.37259 5.37258 0 12 0H118C124.627 0 130 5.37258 130 12V82C130 102.987 112.987 120 92 120H38C17.0132 120 0 102.987 0 82V12Z" fill="white"/></mask><g mask="url(#faceSquare01Mask0)"><rect x="-2" y="-2" width="134" height="124" fill="#5E35B1"/>
            undefined
        </g></g><g transform="translate(52, 124)"><path d="M27.0493 8.44151C26.8055 7.36419 27.4811 6.29318 28.5584 6.04935C29.6358 5.80551 30.7068 6.48119 30.9506 7.55851C31.72 10.9578 34.4016 13 37.9999 13C41.5983 13 44.2799 10.9578 45.0493 7.55851C45.2931 6.48119 46.3641 5.80551 47.4414 6.04935C48.5188 6.29318 49.1944 7.36419 48.9506 8.44151C47.7599 13.7024 43.4298 17 37.9999 17C32.5701 17 28.24 13.7024 27.0493 8.44151Z" fill="black" fill-opacity="0.6"/></g><g transform="translate(38, 76)"><path d="M29.2691 9.67983C26.7216 9.81334 24.305 11.9225 23.0195 13.8332C21.5357 12.0676 18.9175 10.2223 16.3701 10.3558C10.8883 10.6431 7.51531 14.1586 7.74073 18.4598C8.0406 24.1816 12.6244 27.3464 17.4365 30.7046C19.1523 31.8531 22.441 34.8494 22.8627 35.5214C23.2845 36.1935 25.0034 36.1278 25.4425 35.3862C25.8817 34.6446 28.7463 31.3502 30.3355 30.0286C34.7674 26.1859 38.9981 22.5592 38.6982 16.8374C38.4728 12.5362 34.7509 9.39254 29.2691 9.67983Z" fill="#FF5353" fill-opacity="0.8"/><path d="M87.6299 10.3558C85.0825 10.2223 82.4586 12.0673 80.9805 13.8332C79.6893 11.9222 77.2784 9.81331 74.7309 9.67981C69.2491 9.39252 65.5272 12.5361 65.3017 16.8374C65.0019 22.5591 69.2297 26.1857 73.6645 30.0286C75.2508 31.3501 78.2083 34.6738 78.5575 35.3862C78.9067 36.0987 80.623 36.2131 81.1373 35.5214C81.6515 34.8298 84.8449 31.8529 86.5635 30.7046C91.3728 27.3462 95.9594 24.1816 96.2593 18.4598C96.4847 14.1586 93.1117 10.6431 87.6299 10.3558Z" fill="#FF5353" fill-opacity="0.8"/></g></svg>